HIERARCHY
ROOT Hips
{
	OFFSET -0.001795 -0.223333 0.028219
	CHANNELS 6 Xposition Yposition Zposition Zrotation Yrotation Xrotation 
	JOINT LeftUpLeg
	{
		OFFSET 0.069520 -0.091406 -0.006815
		CHANNELS 3 Zrotation Yrotation Xrotation
		JOINT LeftLeg
		{
			OFFSET 0.034277 -0.375199 -0.004496
			CHANNELS 3 Zrotation Yrotation Xrotation
			JOINT LeftFoot
			{
				OFFSET -0.013596 -0.397961 -0.043693
				CHANNELS 3 Zrotation Yrotation Xrotation
				JOINT LeftToe
				{
					OFFSET 0.026358 -0.055791 0.119288
					CHANNELS 3 Zrotation Yrotation Xrotation
					End Site
					{
						OFFSET 0.000000 0.000000 0.000000
					}
				}
			}
		}
	}
	JOINT RightUpLeg
	{
		OFFSET -0.067670 -0.090522 -0.004320
		CHANNELS 3 Zrotation Yrotation Xrotation
		JOINT RightLeg
		{
			OFFSET -0.038290 -0.382569 -0.008850
			CHANNELS 3 Zrotation Yrotation Xrotation
			JOINT RightFoot
			{
				OFFSET 0.015774 -0.398415 -0.042312
				CHANNELS 3 Zrotation Yrotation Xrotation
				JOINT RightToe
				{
					OFFSET -0.025372 -0.048144 0.123348
					CHANNELS 3 Zrotation Yrotation Xrotation
					End Site
					{
						OFFSET 0.000000 0.000000 0.000000
					}
				}
			}
		}
	}
	JOINT Spine
	{
		OFFSET -0.002533 0.108963 -0.026696
		CHANNELS 3 Zrotation Yrotation Xrotation
		JOINT Spine1
		{
			OFFSET 0.005487 0.135180 0.001092
			CHANNELS 3 Zrotation Yrotation Xrotation
			JOINT Spine2
			{
				OFFSET 0.001457 0.052922 0.025425
				CHANNELS 3 Zrotation Yrotation Xrotation
				JOINT Neck
				{
					OFFSET -0.002778 0.213870 -0.042857
					CHANNELS 3 Zrotation Yrotation Xrotation
					JOINT Head
					{
						OFFSET 0.005152 0.064970 0.051349
						CHANNELS 3 Zrotation Yrotation Xrotation
						End Site
						{
							OFFSET 0.000000 0.000000 0.000000
						}
					}
				}
				JOINT LeftShoulder
				{
					OFFSET 0.078845 0.121749 -0.034090
					CHANNELS 3 Zrotation Yrotation Xrotation
					JOINT LeftArm
					{
						OFFSET 0.090977 0.030469 -0.008868
						CHANNELS 3 Zrotation Yrotation Xrotation
						JOINT LeftForeArm
						{
							OFFSET 0.259612 -0.012772 -0.027456
							CHANNELS 3 Zrotation Yrotation Xrotation
							JOINT LeftHand
							{
								OFFSET 0.249234 0.008986 -0.001171
								CHANNELS 3 Zrotation Yrotation Xrotation
								End Site
								{
									OFFSET 0.000000 0.000000 0.000000
								}
							}
						}
					}
				}
				JOINT RightShoulder
				{
					OFFSET -0.081759 0.118833 -0.038615
					CHANNELS 3 Zrotation Yrotation Xrotation
					JOINT RightArm
					{
						OFFSET -0.096012 0.032551 -0.009143
						CHANNELS 3 Zrotation Yrotation Xrotation
						JOINT RightForeArm
						{
							OFFSET -0.253742 -0.013329 -0.021401
							CHANNELS 3 Zrotation Yrotation Xrotation
							JOINT RightHand
							{
								OFFSET -0.255298 0.007772 -0.005559
								CHANNELS 3 Zrotation Yrotation Xrotation
								End Site
								{
									OFFSET 0.000000 0.000000 0.000000
								}
							}
						}
					}
				}
			}
		}
	}
}
MOTION
Frames: 6
Frame Time: 0.050000
0.000000 0.962960 0.000000 -0.740365 5.091634 0.213156 3.881972 0.275628 7.486328 -2.369584 0.329469 -10.956579 5.603218 15.256023 20.935073 0.000000 0.000000 0.000000 -0.351806 -0.643125 6.198069 -0.685234 -0.151246 -4.968689 -3.372178 -11.402288 16.256621 0.000000 0.000000 0.000000 -1.086426 -0.116369 3.880414 2.649339 0.057077 -24.231582 -1.659690 -2.708968 28.011288 -0.342796 1.345566 -17.258131 0.000000 0.000000 0.000000 4.950148 9.000403 -2.600906 -4.373217 -13.470753 -1.075593 8.615567 2.785746 0.159898 0.000000 0.000000 0.000000 -13.671863 -5.140470 -0.924975 9.001938 9.045495 -1.125507 -10.582344 0.823071 0.199077 0.000000 0.000000 0.000000 
0.000420 0.961447 -0.000048 -1.299567 5.391689 0.326599 4.409830 0.236609 7.978137 -1.865815 0.329891 -11.915107 4.722925 14.036181 20.105836 0.000000 0.000000 0.000000 0.509766 -0.776770 6.796020 -1.359936 -0.173775 -6.239506 -3.099421 -10.901026 16.372545 0.000000 0.000000 0.000000 -0.576133 -0.122738 3.484846 2.540533 0.081599 -24.059749 -1.941117 -3.796323 27.517320 -2.296820 2.548670 -16.702526 0.000000 0.000000 0.000000 3.703066 8.362477 -2.580878 -4.184898 -11.390676 -0.999018 6.540599 2.372335 0.100103 0.000000 0.000000 0.000000 -12.236800 -4.746548 -0.778118 9.030211 8.523532 -1.115909 -10.044137 4.581821 -0.053900 0.000000 0.000000 0.000000 
0.000650 0.960926 -0.000336 -0.935926 3.761297 0.130829 3.966902 0.308601 7.766181 -1.885209 0.342698 -10.576693 5.211566 14.461573 19.802534 0.000000 0.000000 0.000000 -0.334016 -0.686766 6.706012 -0.612062 -0.199124 -5.848463 -2.856558 -10.554758 15.378915 0.000000 0.000000 0.000000 -0.639556 -0.126210 3.667924 2.349818 0.130443 -24.791362 -1.905249 -1.894921 28.989932 -1.127661 1.934492 -17.806326 0.000000 0.000000 0.000000 2.777229 8.691891 -2.777554 -4.987685 -13.240714 -1.109118 6.373269 3.055281 0.104865 0.000000 0.000000 0.000000 -10.620407 -5.979168 -1.341111 11.785032 10.965003 -1.259090 -12.043757 3.906922 -0.009294 0.000000 0.000000 0.000000 
0.000929 0.960481 -0.000475 -1.008316 4.031981 -0.333913 4.294058 0.303868 8.373900 -2.290144 0.344105 -10.828954 5.042520 14.243265 19.625210 0.000000 0.000000 0.000000 -0.412077 -0.783647 7.635717 -0.261105 -0.245264 -6.378131 -2.938939 -10.632058 15.107934 0.000000 0.000000 0.000000 -0.791745 -0.133729 4.001096 3.107709 -0.050158 -24.793064 -2.532344 -2.539286 29.725187 -1.768542 2.293967 -17.740652 0.000000 0.000000 0.000000 1.032254 9.280880 -3.212154 -6.874156 -12.846130 -1.211870 7.186688 1.974848 0.107110 0.000000 0.000000 0.000000 -10.065863 -5.352044 -1.168914 12.148874 11.320307 -1.274791 -10.802752 4.273861 -0.029958 0.000000 0.000000 0.000000 
0.000935 0.960619 -0.000653 -0.905767 3.962516 -0.563913 4.356577 0.309636 8.547455 -2.601933 0.346460 -10.675616 5.043260 14.240417 19.643731 0.000000 0.000000 0.000000 -0.471780 -0.795427 7.800910 -0.168958 -0.252922 -6.433787 -3.255741 -11.252691 15.409119 0.000000 0.000000 0.000000 -1.054768 -0.142164 4.544814 3.486941 -0.124917 -25.166367 -2.600943 -2.457690 29.327210 -1.540296 2.130951 -17.424386 0.000000 0.000000 0.000000 -0.311593 8.513530 -3.087257 -8.475635 -12.756121 -1.286120 7.458891 0.114867 0.058511 0.000000 0.000000 0.000000 -8.940247 -4.904758 -1.107504 14.282536 11.349493 -1.347036 -10.831994 6.021020 -0.142129 0.000000 0.000000 0.000000 
0.001016 0.960766 -0.000774 -0.712862 4.573264 -0.558274 4.414338 0.292832 8.611191 -2.933132 0.339950 -10.731859 4.491234 13.500586 19.168331 0.000000 0.000000 0.000000 -0.613118 -0.797483 7.860506 -0.244978 -0.257599 -6.613217 -3.498859 -11.679200 15.964564 0.000000 0.000000 0.000000 -1.474042 -0.110800 4.116693 3.589441 -0.152263 -24.889697 -2.821394 -3.384219 29.433568 -1.217331 1.838059 -18.297094 0.000000 0.000000 0.000000 -1.538425 8.471142 -3.209378 -11.123221 -13.174587 -1.426925 8.176675 -1.653429 0.010323 0.000000 0.000000 0.000000 -8.145380 -4.593633 -1.020954 17.129498 12.626666 -1.367279 -11.351746 6.603242 -0.201355 0.000000 0.000000 0.000000 
